<svg width="400" height="400" xmlns="http://www.w3.org/2000/svg">
 <g id="Layer_1">
  <title>Layer 1</title>
  <path d="m154,56c-1,0 -5,0 -11,0c-6,0 -9,0 -12,0c-3,0 -11.03407,-0.68976 -18,0c-5.0742,0.50245 -7.07612,1.61732 -8,2c-1.30656,0.54119 -2.15224,1.23463 -4,2c-1.30656,0.54119 -3.41886,1.41886 -5,3c-1.58114,1.58114 -2.70546,3.34619 -5,5c-1.814,1.30745 -1.61732,2.07612 -2,3c-0.5412,1.30656 -2.4588,2.69344 -3,4c-0.38268,0.92388 -2.42043,4.08582 -3,6c-1.04483,3.45084 -2.91761,5.38687 -4,8c-0.76537,1.84776 0,5 0,6c0,3 0.61732,6.07612 1,7c0.5412,1.30656 1.71412,3.21168 4,6c1.79319,2.18734 4,4 6,6c1,1 2.186,0.69255 4,2c2.29454,1.65381 2.82375,3.48626 5,4c0.97325,0.22975 3.066,1.87766 5,3c3.11848,1.80972 4.29289,2.29289 5,3c0.70711,0.70711 1.52814,2.11833 2,3c1.70131,3.17892 3.69255,3.186 5,5c0.8269,1.14726 1.48626,2.82375 2,5c0.4595,1.9465 1.49346,2.87856 2,6c0.48055,2.96126 0,4 0,6c0,1 0,3 0,4c0,2 0.66251,3.31001 -1,6c-1.48699,2.40601 -3,3 -4,4c-1,1 -3.14681,3.86325 -5,6c-3.27601,3.77727 -6.20681,6.81265 -8,9c-2.28588,2.78833 -4.33749,6.31001 -6,9c-1.48699,2.40601 -3.61065,6.15927 -5,9c-1.58411,3.23892 -4.04869,8.28912 -6,13c-1.37978,3.3311 -1.42043,5.08582 -2,7c-1.04483,3.45085 -2.95517,4.54915 -4,8c-1.15913,3.82837 -0.97251,7.64749 -2,12c-0.68926,2.91975 0,7 0,10c0,4 0,7 0,13c0,4 0,8 0,11c0,4 0.08659,10.38062 2,15c1.62359,3.91968 3.69255,6.186 5,8c0.8269,1.14728 3,2 5,3c2,1 6,4 7,5c1,1 2.85273,1.1731 4,2c3.62798,2.6149 8,4 9,4c1,0 1.01498,0.75565 3,1c4.09222,0.50378 10,1 16,1c1,0 3,0 5,0c2,0 3,0 5,0c5,0 9,0 11,0c3,0 5,0 7,0c1,0 2.186,0.30746 4,-1c1.14726,-0.8269 3.11833,-3.52814 4,-4c3.17892,-1.70129 2.23463,-5.15225 3,-7c1.0824,-2.61313 2,-3 2,-5c0,-1 0,-2 0,-4c0,-1 0,-2 -1,-3c-1,-1 -1.82375,-2.48627 -4,-3c-1.9465,-0.4595 -4,0 -5,0c-1,0 -3,0 -5,0c-1,0 -2.9258,-2.49756 -8,-3c-0.99513,-0.09854 -2.07613,0.38269 -3,0c-1.30656,-0.5412 -1.82375,-1.48627 -4,-2c-1.9465,-0.4595 -3.82443,0.9021 -5,-1c-0.52573,-0.85065 -2.88152,-2.19028 -6,-4c-1.934,-1.12234 -5.31001,-2.33749 -8,-4c-2.40601,-1.487 -3.91761,-2.38687 -5,-5c-0.38268,-0.92389 -1.77025,-3.02676 -2,-4c-0.51374,-2.17624 -1.4588,-2.69345 -2,-4c-0.38268,-0.92389 0,-2 0,-5c0,-2 0,-3 0,-6c0,-1 0,-5 0,-7c0,-2 1.42043,-6.08582 2,-8c1.04483,-3.45085 3,-5 5,-9c1,-2 2.78985,-3.07843 4,-6c0.85571,-2.06586 3.14935,-3.47427 4,-4c1.90211,-1.17557 2.29289,-3.29289 3,-4c0.70711,-0.70711 0.38687,-1.9176 3,-3c0.92387,-0.38269 2.38687,-1.9176 5,-3c0.92387,-0.38269 2,0 3,0c2,0 3.90779,0.49623 8,1c4.96254,0.61092 9.02997,0.51126 13,1c4.09221,0.50377 6.133,1.5695 10,3c2.09717,0.7758 5.90779,3.49623 10,4c1.98502,0.24437 3,1 5,2c2,1 3.88152,3.19028 7,5c1.93399,1.12234 2,2 5,3c3,1 6,2 8,2c2,0 4,0 6,0c1,0 3,0 5,0c2,0 4.41885,-0.41885 6,-2c1.58115,-1.58115 1.58578,-2.58578 3,-4c0.70711,-0.70711 1,-1 1,-2c0,-1 0,-4 0,-8c0,-4 -2.15224,-6.23463 -4,-7c-2.61313,-1.0824 -2.81265,-2.2068 -5,-4c-2.78833,-2.28587 -5,-4 -8,-4c-1,0 -2,-2 -3,-2c-4,0 -7,0 -12,0c-7,0 -14,0 -18,0c-3,0 -6,0 -7,0c-3,0 -7,-2 -9,-2c-1,0 -2.4588,0.30656 -3,-1c-0.76537,-1.84776 -2,-3 -2,-4c0,-1 0,-3 0,-4c0,-1 0,-4 0,-5c0,-4 0.48625,-4.82375 1,-7c0.22975,-0.97325 0.14935,-1.47427 1,-2c1.90211,-1.17557 0.85274,-3.1731 2,-4c1.814,-1.30745 2.61731,-2.07613 3,-3c1.0824,-2.61313 4.86829,-3.28859 9,-5c2.92157,-1.21014 5.83809,-2.46552 11,-4c4.88763,-1.45294 13.13376,-0.85124 18,-2c2.17625,-0.51375 4,-1 5,-1c1,0 3,0 5,0c2,0 4,0 6,0c1,0 2,0 5,0c2,0 4,0 6,0c3,0 4.07613,0.38269 5,0c1.30656,-0.5412 2,-2 3,-3c1,-1 2,-4 3,-6c1,-2 1.97252,-3.64749 3,-8c0.91901,-3.893 0.95517,-6.54916 2,-10c0.57957,-1.91418 0,-4 0,-5c0,-1 -0.29289,-3.29289 -1,-4c-1.41422,-1.41422 -6,-1 -10,-1c-6,0 -12,0 -17,0c-3,0 -4,0 -6,0c-2,0 -8,0 -12,0c-4,0 -5,0 -7,0c-4,0 -7.03874,1.51945 -10,2c-3.12144,0.50654 -7.95332,1.49903 -16,2c-3.99226,0.24855 -5.29289,0.70711 -6,0c-0.70711,-0.70711 0.4305,-2.133 -1,-6c-0.7758,-2.09718 -1,-4 -1,-7c0,-3 0,-5 0,-8c0,-2 0,-6 0,-8c0,-1 0,-2 1,-2c1,0 1.93796,-1.49829 8,-2c5.97955,-0.49488 11,-1 16,-1c3,0 4,0 5,0c2,0 4,0 6,0c5,0 11,0 12,0c1,0 2,0 5,0c1,0 2,0 5,0c3,0 6,0 8,0c1,0 3,-1 4,-2c1,-1 2,-2 3,-3c1,-1 3.1731,-1.85273 4,-3c1.30745,-1.814 1.5405,-6.0535 2,-8c1.02748,-4.3525 2,-6 2,-9c0,-1 0,-3 0,-4c0,-1 0,-3 -1,-3c-1,0 -5,0 -8,0c-2,0 -4,0 -5,0c-2,0 -4,0 -7,0c-6,0 -8,0 -11,0c-4,0 -5,0 -8,0c-2,0 -5,1 -6,1c-1,0 -2.186,-0.30745 -4,1c-1.14726,0.8269 -3.90779,1.49623 -8,2c-1.98502,0.24437 -3,1 -4,1c-1,0 -3,1 -4,1c-1,0 -3,1 -4,1c-1,0 -3,0 -5,0c-1,0 -3,0 -4,0c-1,0 -1,1 -2,2l-1,0l-1,0l-2,0" id="svg_1" stroke="#000" fill="none"/>
  <text stroke="#000" xml:space="preserve" text-anchor="start" font-family="Noto Sans JP" font-size="24" id="svg_2" y="268" x="177" stroke-width="0" fill="#000000">Imagen vectorizada</text>
 </g>
</svg>